PathFileType	4	(X/Y/Z)	markers
DataRate	CameraRate	NumFrames	NumMarkers	Units	OrigDataRate	OrigDataStartFrame	OrigNumFrames
200	200	5	49	mm	200	28	219
Frame#	Time	RASI			LASI			RPSI			LPSI			RTH1			RTH2			RTH3			RTH4			RLFC			RMFC			RTB1			RTB2			RTB3			RTB4			RLMAL			RMMAL			RCAL			RTOE			RMT5			LTH1			LTH2			LTH3			LTH4			LLFC			LMFC			LTB1			LTB2			LTB3			LTB4			LLMAL			LMMAL			LCAL			LTOE			LMT5			C7			T10			CLAV			RACR			LACR			RLEL			RFAradius			LLEL			LFAradius			RHJC			LHJC			RKJC			LKJC			RAJC			LAJC		
		X1	Y1	Z1	X2	Y2	Z2	X3	Y3	Z3	X4	Y4	Z4	X5	Y5	Z5	X6	Y6	Z6	X7	Y7	Z7	X8	Y8	Z8	X9	Y9	Z9	X10	Y10	Z10	X11	Y11	Z11	X12	Y12	Z12	X13	Y13	Z13	X14	Y14	Z14	X15	Y15	Z15	X16	Y16	Z16	X17	Y17	Z17	X18	Y18	Z18	X19	Y19	Z19	X20	Y20	Z20	X21	Y21	Z21	X22	Y22	Z22	X23	Y23	Z23	X24	Y24	Z24	X25	Y25	Z25	X26	Y26	Z26	X27	Y27	Z27	X28	Y28	Z28	X29	Y29	Z29	X30	Y30	Z30	X31	Y31	Z31	X32	Y32	Z32	X33	Y33	Z33	X34	Y34	Z34	X35	Y35	Z35	X36	Y36	Z36	X37	Y37	Z37	X38	Y38	Z38	X39	Y39	Z39	X40	Y40	Z40	X41	Y41	Z41	X42	Y42	Z42	X43	Y43	Z43	X44	Y44	Z44	X45	Y45	Z45	X46	Y46	Z46	X47	Y47	Z47	X48	Y48	Z48	X49	Y49	Z49
28	0.135000	696.783391	1021.964599	-1485.250801	699.704861	1025.234231	-1723.163330	533.500347	1059.851264	-1559.139502	532.525488	1059.581576	-1649.255609	636.374604	772.703465	-1416.565218	692.404116	758.931000	-1447.673585	672.658373	659.711068	-1445.952915	629.396514	665.761992	-1420.760609	594.023822	549.001657	-1424.812315	589.835862	512.186928	-1539.906945	555.803847	429.918423	-1388.435484	600.032516	425.124658	-1410.511320	596.003561	317.965535	-1414.878925	538.879964	328.077258	-1385.232714	525.616079	128.940059	-1396.688954	548.545458	130.694163	-1495.857035	459.316620	90.277060	-1449.768672	678.484569	65.832030	-1467.730683	645.279617	58.424034	-1374.187708	668.427109	771.439211	-1792.216548	701.377971	770.639533	-1755.191340	692.273859	668.635584	-1743.352920	649.314940	665.997148	-1791.831942	597.528118	531.959084	-1800.948544	567.336807	517.189535	-1678.416110	581.334926	441.798390	-1831.571823	619.120981	434.797943	-1802.182799	605.249895	333.896562	-1795.220690	554.550444	337.167384	-1835.797731	539.879764	124.522722	-1807.623803	533.205363	127.479713	-1709.911710	452.892403	87.165795	-1766.603255	670.355922	69.617504	-1723.271767	644.010511	57.998122	-1819.522130	530.196309	1559.309246	-1613.746083	488.997963	1346.619277	-1609.677007	644.479686	1501.798349	-1586.424195	542.042719	1564.018818	-1481.907546	535.900589	1560.575735	-1738.718731	548.375838	1500.751903	-1168.246891	610.778172	1556.336067	-914.858822	581.705258	1482.149657	-2053.578458	678.996897	1540.597416	-2294.466502	630.297523	952.831572	-1520.174944	632.404945	955.190143	-1691.794734	591.929842	530.594292	-1482.359630	582.432462	524.574309	-1739.682327	537.080769	129.817111	-1446.272994	536.542564	126.001218	-1758.767756
29	0.140000	696.799741	1021.968462	-1485.233704	699.631978	1025.230940	-1723.150225	533.543391	1059.819048	-1559.172602	532.758614	1059.793669	-1649.251658	636.399793	772.721615	-1416.534533	692.378506	758.927058	-1447.635323	672.603699	659.700913	-1445.923990	629.425806	665.786634	-1420.692135	594.111990	549.000805	-1424.784946	589.774825	512.146410	-1539.856593	555.698768	429.865152	-1388.393507	600.038430	425.142217	-1410.506285	595.899287	317.919247	-1414.921170	538.871281	328.074809	-1385.227318	525.596607	128.956537	-1396.699733	548.469012	130.679284	-1495.816551	459.360860	90.278576	-1449.768660	678.441096	65.803437	-1467.725073	645.276816	58.424708	-1374.164266	668.302670	771.420598	-1792.252849	701.398415	770.643444	-1755.156026	692.277685	668.600284	-1743.389194	649.365372	665.973057	-1791.856695	597.552486	531.943366	-1800.945384	567.227740	517.176825	-1678.409555	581.353441	441.801468	-1831.533555	619.186633	434.830198	-1802.182947	605.252079	333.851679	-1795.252054	554.562913	337.147197	-1835.797062	539.928621	124.546703	-1807.655260	533.163947	127.491128	-1709.913438	452.849168	87.106490	-1766.569395	670.380967	69.624281	-1723.232179	644.063577	57.969917	-1819.469000	530.156225	1559.581151	-1613.769481	488.921111	1346.664198	-1609.704588	644.501230	1501.795860	-1586.410493	542.086621	1563.988092	-1481.923489	535.898616	1560.538724	-1738.688382	548.372064	1500.746125	-1168.264666	610.683736	1556.295340	-914.843228	581.704653	1482.107274	-2053.598024	679.031388	1540.589029	-2294.474125	630.284110	952.874367	-1520.130937	632.327161	955.227775	-1691.753434	591.943408	530.573608	-1482.320770	582.390113	524.560096	-1739.677470	537.032809	129.817911	-1446.258142	536.546284	126.018915	-1758.784349
30	0.145000	696.830975	1021.999257	-1485.216026	699.722060	1025.238378	-1723.108697	533.696027	1059.790567	-1559.160887	532.537794	1059.643338	-1649.261333	636.436677	772.705629	-1416.572614	692.320205	758.901761	-1447.665639	672.637465	659.726770	-1445.933909	629.505752	665.811224	-1420.737607	594.055702	549.004669	-1424.818037	589.766443	512.122079	-1539.852259	555.692724	429.861497	-1388.417014	600.075475	425.105733	-1410.496115	595.988246	317.972531	-1414.914592	538.801467	328.016216	-1385.224228	525.571771	128.969305	-1396.628976	548.878581	131.032527	-1495.817957	459.335950	90.252308	-1449.788293	678.460609	65.817981	-1467.710937	645.317089	58.430378	-1374.197167	668.258878	771.397753	-1792.216692	701.367729	770.659196	-1755.191936	692.256999	668.630942	-1743.374646	649.378476	665.994641	-1791.849335	597.574684	531.936174	-1800.938945	567.296358	517.215659	-1678.388349	581.287172	441.769392	-1831.533957	619.186633	434.830198	-1802.182947	605.275032	333.891642	-1795.249134	554.550417	337.167426	-1835.797732	539.915919	124.517559	-1807.640614	533.147305	127.538085	-1709.922440	452.821575	87.107930	-1766.628525	670.349611	69.629966	-1723.265185	644.061316	57.974375	-1819.500914	530.149300	1559.332766	-1613.855009	488.925950	1346.663346	-1609.714315	644.475764	1501.740365	-1586.446468	542.108331	1564.009584	-1481.936034	536.010183	1560.516764	-1738.718069	548.370808	1500.754959	-1168.306270	610.748747	1556.283762	-914.858982	581.704188	1482.099822	-2053.584237	679.015876	1540.602034	-2294.460971	630.361090	952.862287	-1520.119198	632.446609	955.198866	-1691.725930	591.911073	530.563374	-1482.335148	582.435521	524.575917	-1739.663647	537.225176	130.000916	-1446.223466	536.531612	126.027822	-1758.781527
31	0.150000	696.766481	1021.949682	-1485.227498	699.683647	1025.230751	-1723.145701	533.435597	1059.892826	-1559.265809	532.472020	1059.661151	-1649.266672	636.411346	772.702061	-1416.533777	692.378487	758.927092	-1447.635323	672.587951	659.676047	-1445.947967	629.470026	665.812634	-1420.769899	594.045362	548.985617	-1424.837630	589.714830	512.140406	-1539.880987	555.767974	429.912661	-1388.419949	600.027198	425.100912	-1410.481167	596.008414	317.977023	-1414.917576	538.847684	328.089234	-1385.220009	525.532459	128.916266	-1396.707046	548.539484	130.705179	-1495.878102	459.360406	90.252247	-1449.831905	678.467436	65.822903	-1467.737738	645.317381	58.440667	-1374.204593	668.376832	771.451939	-1792.288762	701.324733	770.636485	-1755.155570	692.282129	668.637121	-1743.388392	649.269764	665.946506	-1791.813981	597.579041	531.933786	-1800.944281	567.203444	517.215073	-1678.388561	581.287174	441.769388	-1831.533957	619.186633	434.830198	-1802.182947	605.239955	333.840468	-1795.265284	554.539571	337.112818	-1835.797051	539.938368	124.531245	-1807.651701	533.153893	127.523556	-1709.934898	452.817917	87.097407	-1766.575813	670.356989	69.638099	-1723.223605	644.038945	57.945295	-1819.496849	530.222034	1559.276485	-1613.847743	488.960048	1346.638365	-1609.713082	644.522797	1501.745054	-1586.438539	542.167038	1564.003752	-1481.887388	535.959524	1560.549147	-1738.719718	548.325142	1500.775300	-1168.219361	610.731608	1556.295625	-914.890338	581.736259	1482.137804	-2053.593659	679.042793	1540.600771	-2294.484836	630.243047	952.842394	-1520.154821	632.347360	955.209210	-1691.778350	591.880096	530.563011	-1482.359308	582.391243	524.574430	-1739.666421	537.035971	129.810722	-1446.292574	536.546130	126.027400	-1758.793300
32	0.155000	696.831217	1022.009707	-1485.245004	699.662584	1025.237949	-1723.173608	533.523575	1059.829802	-1559.254082	532.596684	1059.832711	-1649.304117	636.399792	772.721618	-1416.534533	692.360428	758.898570	-1447.632502	672.618628	659.688023	-1445.920047	629.451449	665.783024	-1420.766822	594.072820	548.946340	-1424.781134	589.839103	512.159806	-1539.866260	555.738533	429.881003	-1388.406801	600.084129	425.158149	-1410.468496	595.948520	317.891933	-1414.953985	538.818555	328.066101	-1385.201401	525.562814	128.906337	-1396.684721	548.514411	130.705244	-1495.897148	459.354171	90.238091	-1449.765403	678.457405	65.805467	-1467.706952	645.273366	58.409208	-1374.189151	668.346411	771.443536	-1792.289006	701.294228	770.584501	-1755.189575	692.198973	668.623250	-1743.326379	649.364953	665.989064	-1791.826304	597.575398	531.931238	-1800.935528	567.194856	517.211429	-1678.403107	581.227436	441.760510	-1831.496734	619.198705	434.810304	-1802.182324	605.205413	333.859774	-1795.231193	554.527075	337.133051	-1835.797721	539.931590	124.515839	-1807.649177	533.171822	127.530681	-1709.904690	452.920448	87.178011	-1766.656248	670.334312	69.606403	-1723.272660	644.004011	58.003031	-1819.523896	530.221681	1559.321537	-1613.856205	489.021721	1346.611044	-1609.705064	644.507966	1501.765862	-1586.434992	542.104019	1564.011186	-1481.948413	535.936977	1560.522569	-1738.738401	548.381473	1500.742532	-1168.269337	610.737834	1556.290095	-914.887079	581.738864	1482.079123	-2053.584375	679.022366	1540.603415	-2294.465451	630.297485	952.903009	-1520.134256	632.339900	955.231711	-1691.764757	591.955961	530.553073	-1482.323697	582.385127	524.571333	-1739.669317	537.038613	129.805791	-1446.290935	536.551706	126.023260	-1758.776934
